:FULLY-SPECIFIED
:FORCE-ALL-JOINTS-BE-3DOF
:DEGREES
2650
root -1.75996 15.0949 -28.5927 1124.77 -65.8787 -46.7715
lfemur -33.8336 22.2026 -6.5954
ltibia 82.3651 0 0
lfoot -3.35313 14.6817 0
ltoes -15.9951 0 0
rfemur -42.2147 -25.3476 24.4208
rtibia 70.0814 0 0
rfoot -18.0542 -13.9957 0
rtoes -4.85246 0 0
lowerback 17.048 1.44985 -2.19913
upperback -0.862414 1.7011 2.56909
thorax -10.4769 1.01553 3.69299
lowerneck -3.23699 3.57501 -2.42421
upperneck 4.07878 4.68225 4.59339
head 1.88296 2.38629 2.00776
lclavicle -3.21762e-14 -8.56477e-15 0
lhumerus 61.0586 -46.5705 42.6815
lradius 119.99 0 0
lwrist 32.1124 0 0
lhand -28.0702 401.141 0
lfingers 7.12502 0 0
lthumb -1.45377 -649.035 0
rclavicle -3.21762e-14 -8.56477e-15 0
rhumerus -10.2073 38.0874 -74.0744
rradius 90.7929 0 0
rwrist -2.93099 0 0
rhand -20.1387 -386.968 0
rfingers 7.12502 0 0
rthumb 6.19433 303.377 0
2651
root -1.87331 15.0954 -28.5656 1128.39 -65.2298 -50.5237
lfemur -33.994 22.4335 -6.53757
ltibia 81.1311 0 0
lfoot -2.75348 14.6824 0
ltoes -15.2914 0 0
rfemur -41.9237 -25.0673 24.2329
rtibia 70.2909 0 0
rfoot -18.2899 -13.9644 0
rtoes -4.83447 0 0
lowerback 17.0279 1.58839 -2.06857
upperback -0.863025 1.90351 2.49962
thorax -10.4562 1.10312 3.49478
lowerneck -3.16316 3.67918 -2.3368
upperneck 4.18328 4.81175 4.5495
head 1.93214 2.44901 1.98213
lclavicle -3.3347e-14 -8.56124e-15 0
lhumerus 58.8022 -45.3489 44.1241
lradius 119.563 0 0
lwrist 30.7243 0 0
lhand -28.3009 400.735 0
lfingers 7.12502 0 0
lthumb -1.67675 -649.463 0
rclavicle -3.3347e-14 -8.56124e-15 0
rhumerus -10.8133 38.6784 -74.5547
rradius 91.6068 0 0
rwrist -5.3853 0 0
rhand -19.5428 -386.867 0
rfingers 7.12502 0 0
rthumb 6.76836 303.515 0
2652
root -1.98665 15.0958 -28.5384 1132.44 -64.5877 -54.7261
lfemur -34.1595 22.694 -6.45594
ltibia 79.7621 0 0
lfoot -2.05934 14.666 0
ltoes -14.4924 0 0
rfemur -41.5831 -24.7653 24.0252
rtibia 70.4935 0 0
rfoot -18.5572 -13.9207 0
rtoes -4.82925 0 0
lowerback 17.0034 1.74185 -1.91923
upperback -0.864013 2.12883 2.42321
thorax -10.4321 1.20037 3.27286
lowerneck -3.08986 3.81394 -2.22624
upperneck 4.30316 4.98226 4.48532
head 1.98547 2.53226 1.94802
lclavicle -3.46842e-14 -8.56965e-15 0
lhumerus 56.381 -43.9754 45.661
lradius 119.116 0 0
lwrist 29.1447 0 0
lhand -28.5887 400.28 0
lfingers 7.12502 0 0
lthumb -1.95482 -649.94 0
rclavicle -3.46842e-14 -8.56965e-15 0
rhumerus -11.5622 39.3397 -75.1393
rradius 92.5055 0 0
rwrist -8.12023 0 0
rhand -18.8819 -386.747 0
rfingers 7.12502 0 0
rthumb 7.40507 303.677 0
2653
root -2.09999 15.0963 -28.5112 1136.96 -63.9572 -59.4078
lfemur -34.3298 22.9859 -6.34808
ltibia 78.2503 0 0
lfoot -1.26346 14.6304 0
ltoes -13.5915 0 0
rfemur -41.189 -24.4407 23.7965
rtibia 70.6873 0 0
rfoot -18.8585 -13.8633 0
rtoes -4.8384 0 0
lowerback 16.9739 1.9111 -1.74975
upperback -0.865417 2.37844 2.33946
thorax -10.4043 1.30787 3.02572
lowerneck -3.01762 3.98221 -2.09039
upperneck 4.43957 5.19776 4.39874
head 2.04313 2.63804 1.90458
lclavicle -3.61999e-14 -8.59143e-15 0
lhumerus 53.7899 -42.44 47.2941
lradius 118.65 0 0
lwrist 27.3601 0 0
lhand -28.9388 399.773 0
lfingers 7.12502 0 0
lthumb -2.29299 -650.47 0
rclavicle -3.61999e-14 -8.59143e-15 0
rhumerus -12.4669 40.0758 -75.8372
rradius 93.4939 0 0
rwrist -11.1532 0 0
rhand -18.1521 -386.608 0
rfingers 7.12502 0 0
rthumb 8.10816 303.863 0
2654
root -2.21333 15.0967 -28.4841 1141.97 -63.3433 -64.598
lfemur -34.5045 23.3114 -6.21159
ltibia 76.5874 0 0
lfoot -0.358551 14.5738 0
ltoes -12.5821 0 0
rfemur -40.7375 -24.0927 23.5457
rtibia 70.87 0 0
rfoot -19.1958 -13.7909 0
rtoes -4.86354 0 0
lowerback 16.9392 2.097 -1.55874
upperback -0.867279 2.65377 2.24801
thorax -10.3725 1.42621 2.75182
lowerneck -2.94696 4.1869 -1.92708
upperneck 4.59363 5.46222 4.28768
head 2.1053 2.76836 1.851
lclavicle -3.79061e-14 -8.62799e-15 0
lhumerus 51.0238 -40.7326 49.0254
lradius 118.165 0 0
lwrist 25.3568 0 0
lhand -29.3564 399.21 0
lfingers 7.12502 0 0
lthumb -2.69631 -651.055 0
rclavicle -3.79061e-14 -8.62799e-15 0
rhumerus -13.5403 40.8913 -76.6576
rradius 94.5767 0 0
rwrist -14.5015 0 0
rhand -17.3495 -386.446 0
rfingers 7.12502 0 0
rthumb 8.88137 304.075 0
2655
root -2.32668 15.0971 -28.4569 1147.5 -62.7507 -70.3256
lfemur -34.6832 23.6724 -6.04404
ltibia 74.7656 0 0
lfoot 0.662641 14.4941 0
ltoes -11.4573 0 0
rfemur -40.2245 -23.7207 23.2718
rtibia 71.0395 0 0
rfoot -19.5714 -13.7024 0
rtoes -4.90624 0 0
lowerback 16.8988 2.30044 -1.34485
upperback -0.869638 2.95622 2.14848
thorax -10.3363 1.55596 2.44965
lowerneck -2.87841 4.43094 -1.73417
upperneck 4.76649 5.77961 4.15005
head 2.17216 2.9252 1.78645
lclavicle -3.9815e-14 -8.68074e-15 0
lhumerus 48.0775 -38.8432 50.857
lradius 117.661 0 0
lwrist 23.1212 0 0
lhand -29.8468 398.589 0
lfingers 7.12502 0 0
lthumb -3.16979 -651.699 0
rclavicle -3.9815e-14 -8.68074e-15 0
rhumerus -14.7953 41.7905 -77.6096
rradius 95.7588 0 0
rwrist -18.1826 0 0
rhand -16.4702 -386.262 0
rfingers 7.12502 0 0
rthumb 9.72842 304.316 0
2656
root -2.44002 15.0976 -28.4297 1153.57 -62.1842 -76.6198
lfemur -34.8654 24.0709 -5.84302
ltibia 72.7768 0 0
lfoot 1.80739 14.3893 0
ltoes -10.2106 0 0
rfemur -39.6462 -23.3237 22.9735
rtibia 71.1938 0 0
rfoot -19.9876 -13.5965 0
rtoes -4.96813 0 0
lowerback 16.8523 2.52228 -1.10668
upperback -0.872535 3.28718 2.04049
thorax -10.2957 1.6977 2.11769
lowerneck -2.81249 4.71723 -1.50951
upperneck 4.95929 6.15389 3.98376
head 2.24388 3.11058 1.71009
lclavicle -4.19387e-14 -8.7511e-15 0
lhumerus 44.9459 -36.7616 52.7907
lradius 117.138 0 0
lwrist 20.6395 0 0
lhand -30.4152 397.906 0
lfingers 7.12502 0 0
lthumb -3.71848 -652.405 0
rclavicle -4.19387e-14 -8.7511e-15 0
rhumerus -16.2447 42.7781 -78.7024
rradius 97.045 0 0
rwrist -22.2139 0 0
rhand -15.5104 -386.053 0
rfingers 7.12502 0 0
rthumb 10.653 304.587 0
